<?xml version="1.0" encoding="utf-8"?>
<svg xmlns="http://www.w3.org/2000/svg" viewBox="0 0 900 900" xmlns:bx="https://boxy-svg.com" width="900px" height="900px"><defs/><ellipse style="stroke: rgb(0, 0, 0); stroke-width: 4px; fill: rgb(175, 201, 235);" cx="450" cy="484.7" rx="400" ry="400"/><ellipse style="stroke: rgb(0, 0, 0); stroke-width: 4; fill: rgb(191, 232, 177);" cx="448.672" cy="548.692" rx="335" ry="335"/><ellipse style="stroke: rgb(0, 0, 0); stroke-width: 4; fill: rgb(227, 105, 105);" cx="451.316" cy="640.175" rx="245" ry="245"/><ellipse style="stroke: rgb(0, 0, 0); stroke-width: 4; fill: rgb(236, 220, 104);" cx="449.282" cy="716.614" rx="170" ry="170"/><rect x="293.215" y="213.977" width="311.276" height="38.105" style="stroke: rgb(0, 0, 0); fill: rgb(255, 255, 255); stroke-width: 4; stroke-linejoin: round; stroke-linecap: round;"/><rect x="291.009" y="78.711" width="314.949" height="38.105" style="stroke: rgb(0, 0, 0); fill: rgb(255, 255, 255); stroke-width: 4; stroke-linejoin: round; stroke-linecap: round;"/><rect x="319.144" y="395.01" width="265.78" height="38.105" style="stroke: rgb(0, 0, 0); fill: rgb(255, 255, 255); stroke-width: 4; stroke-linejoin: round; stroke-linecap: round;"/><rect x="341.052" y="545.754" width="216.591" height="38.105" style="stroke: rgb(0, 0, 0); fill: rgb(255, 255, 255); stroke-width: 4; stroke-linejoin: round; stroke-linecap: round;"/><text style="white-space: pre; fill: rgb(51, 51, 51); font-family: Arial, sans-serif; font-size: 28px;" x="326.125" y="107.225">Artificial Intelligence</text><text style="white-space: pre; fill: rgb(51, 51, 51); font-family: Arial, sans-serif; font-size: 28px; stroke-width: 1;" x="339.178" y="242.746">Machine Learning</text><text style="white-space: pre; fill: rgb(51, 51, 51); font-family: Arial, sans-serif; font-size: 28px; stroke-width: 1;" x="360.537" y="423.135">Deep Learning</text><text style="white-space: pre; fill: rgb(51, 51, 51); font-family: Arial, sans-serif; font-size: 28px; stroke-width: 1;" x="361.755" y="574.158">Generative AI</text><text style="font-family: Arial, sans-serif; font-size: 18px; white-space: pre;" x="362.271" y="194.461">Adversarial Search</text><text style="font-family: Arial, sans-serif; font-size: 18px; white-space: pre; stroke-width: 1;" x="487.959" y="156.559">A* Search</text><text style="font-family: Arial, sans-serif; font-size: 18px; white-space: pre; stroke-width: 1; text-anchor: middle; transform-box: fill-box; transform-origin: 50% 50%;" x="619.825" y="236.18" transform="matrix(0.940855, 0.338811, -0.338811, 0.940855, 34.071117, -47.120499)">Expert<tspan x="619.8250122070312" dy="1em">​</tspan>Systems</text><text style="font-family: Arial, sans-serif; font-size: 18px; white-space: pre; stroke-width: 1; text-anchor: middle; transform-origin: 619.825px 238.874px;" x="619.825" y="236.18" transform="matrix(0.974656, -0.223713, 0.223713, 0.974656, -397.53717, -26.936901)">Knowledge<tspan x="619.8250122070312" dy="1em">​</tspan>Representation</text><text style="font-family: Arial, sans-serif; font-size: 18px; white-space: pre; stroke-width: 1; text-anchor: middle; transform-origin: 619.825px 238.874px;" x="619.825" y="236.18" transform="matrix(0.937474, -0.348057, 0.348057, 0.937474, -473.063202, 65.785034)">Constraint<tspan x="619.8250122070312" dy="1em">​</tspan>Satisfaction</text><text style="font-family: Arial, sans-serif; font-size: 18px; white-space: pre; stroke-width: 1; text-anchor: middle; transform-origin: 619.826px 238.875px;" x="619.826" y="236.18" transform="matrix(0.906248, -0.422746, 0.422746, 0.906248, 40.351148, 70.431467)">Decision    Trees</text><text style="font-family: Arial, sans-serif; font-size: 18px; white-space: pre; stroke-width: 1; text-anchor: middle; transform-origin: 619.826px 238.875px;" x="619.826" y="236.18" transform="matrix(0.999924, -0.012342, 0.012342, 0.999924, -215.043091, 44.149761)">K-Means<tspan x="619.8259887695312" dy="1em">​</tspan>Clustering</text><text style="font-family: Arial, sans-serif; font-size: 18px; white-space: pre; stroke-width: 1; text-anchor: middle; transform-origin: 619.826px 238.875px;" x="619.826" y="236.18" transform="matrix(0.999924, -0.012342, 0.012342, 0.999924, 62.470963, 194.937378)">Bayesian<tspan x="619.8259887695312" dy="1em">​</tspan>Networks</text><text style="font-family: Arial, sans-serif; font-size: 18px; white-space: pre; stroke-width: 1; text-anchor: middle; transform-origin: 619.826px 238.875px;" x="619.826" y="236.18" transform="matrix(0.999924, -0.012342, 0.012342, 0.999924, 37.124224, 138.019591)">Perceptrons</text><text style="font-family: Arial, sans-serif; font-size: 18px; white-space: pre; stroke-width: 1; text-anchor: middle; transform-origin: 619.826px 238.875px;" x="619.826" y="236.18" transform="matrix(0.999924, -0.012342, 0.012342, 0.999924, -429.859681, 238.164702)">PCA</text><text style="font-family: Arial, sans-serif; font-size: 18px; white-space: pre; stroke-width: 1; text-anchor: middle; transform-origin: 619.826px 238.875px;" x="619.826" y="236.18" transform="matrix(0.999924, -0.012342, 0.012342, 0.999924, -369.149384, 169.544907)">Linear<tspan x="619.8259887695312" dy="1em">​</tspan>Regression</text><text style="font-family: Arial, sans-serif; font-size: 18px; white-space: pre; stroke-width: 1; text-anchor: middle; transform-origin: 619.826px 238.875px;" x="619.826" y="236.18" transform="matrix(0.999924, -0.012342, 0.012342, 0.999924, -319.434723, 60.695827)">Logistic<tspan x="619.8259887695312" dy="1em">​</tspan>Regression</text><text style="font-family: Arial, sans-serif; font-size: 18px; white-space: pre; stroke-width: 1; text-anchor: middle; transform-origin: 619.826px 238.875px;" x="619.826" y="236.18" transform="matrix(0.999924, -0.012342, 0.012342, 0.999924, -286.595643, 123.59857)">K-Nearest Neighbors</text><text style="font-family: Arial, sans-serif; font-size: 18px; white-space: pre; stroke-width: 1; text-anchor: middle; transform-origin: 619.826px 238.875px;" x="619.826" y="236.18" transform="matrix(0.999924, -0.012342, 0.012342, 0.999924, -109.346039, 110.259789)">Support Vector<tspan x="619.8259887695312" dy="1em">​</tspan>Machines</text><text style="font-family: Arial, sans-serif; font-size: 18px; white-space: pre; stroke-width: 1; text-anchor: middle; transform-origin: 619.826px 238.875px;" x="619.826" y="236.18" transform="matrix(0.999924, -0.012342, 0.012342, 0.999924, -445.24884, 282.387451)">Markov<tspan x="619.8259887695312" dy="1em">​</tspan>Models</text><text style="font-family: Arial, sans-serif; font-size: 18px; white-space: pre; stroke-width: 1; text-anchor: middle; transform-origin: 619.826px 238.875px;" x="619.826" y="236.18" transform="matrix(0.999924, -0.012342, 0.012342, 0.999924, -100.303194, 259.663374)">Transformers</text><text style="font-family: Arial, sans-serif; font-size: 18px; white-space: pre; stroke-width: 1; text-anchor: middle; transform-origin: 619.826px 238.875px;" x="619.826" y="236.18" transform="matrix(0.999924, -0.012342, 0.012342, 0.999924, -248.732513, 268.751343)">Convolutional<tspan x="619.8259887695312" dy="1em">​</tspan>Neural Networks</text><text style="font-family: Arial, sans-serif; font-size: 18px; white-space: pre; stroke-width: 1; text-anchor: middle; transform-origin: 619.826px 238.875px;" x="619.826" y="236.18" transform="matrix(0.767514, 0.641033, -0.641033, 0.767514, -2.603052, 324.760651)">Recurrent<tspan x="619.8259887695312" dy="1em">​</tspan>Neural Networks</text><text style="font-family: Arial, sans-serif; font-size: 18px; white-space: pre; stroke-width: 1; text-anchor: middle; transform-origin: 619.826px 238.875px;" x="619.826" y="236.18" transform="matrix(0.89745, -0.441118, 0.441118, 0.89745, -340.034973, 342.614777)">Multi-Layer<tspan x="619.8259887695312" dy="1em">​</tspan>Perceptrons</text><text style="font-family: Arial, sans-serif; font-size: 18px; white-space: pre; stroke-width: 1; text-anchor: middle; transform-origin: 619.826px 238.875px;" x="619.827" y="236.18" transform="matrix(1, -0.000001, 0.000001, 1, -168.458089, 402.096853)">Auto Encoders</text><text style="font-family: Arial, sans-serif; font-size: 18px; white-space: pre; stroke-width: 1; text-anchor: middle; transform-origin: 619.826px 238.875px;" x="619.827" y="236.18" transform="matrix(1, -0.000001, 0.000001, 1, -225.40892, 456.593964)">Generative Adversarial<tspan x="619.8270263671875" dy="1em">​</tspan>Networks</text><text style="font-family: Arial, sans-serif; font-size: 18px; white-space: pre; stroke-width: 1; text-anchor: middle; transform-origin: 619.826px 238.875px;" x="619.827" y="236.18" transform="matrix(1, -0.000001, 0.000001, 1, -97.690086, 521.045288)">Large Language<tspan x="619.8270263671875" dy="1em">​</tspan>Models</text><text style="font-family: Arial, sans-serif; font-size: 18px; white-space: pre; stroke-width: 1; text-anchor: middle; transform-origin: 619.826px 238.875px;" x="619.827" y="236.18" transform="matrix(1, -0.000001, 0.000001, 1, -190.577184, 581.427115)">Diffusion Models</text><text style="font-family: Arial, sans-serif; font-size: 18px; white-space: pre; stroke-width: 1;" x="265.454" y="153.943">Reinforcement Learning</text><text style="font-family: Arial, sans-serif; font-size: 18px; white-space: pre; stroke-width: 1; text-anchor: middle;" x="274.695" y="471.323" transform="matrix(1, 0, 0, 1, 140.344986, -12.008727)">Deep Reinforcement <tspan x="274.69500732421875" dy="1em">​</tspan>Learning</text></svg>